<svg xmlns="http://www.w3.org/2000/svg" width="15.187" height="12" viewBox="0 0 15.187 12">
  <defs>
    <style>
      .cls-1 {
        fill: #fff;
        fill-rule: evenodd;
      }
    </style>
  </defs>
  <path id="bird" class="cls-1" d="M655,4620.82a6.3,6.3,0,0,1-1.792.48,3.07,3.07,0,0,0,1.372-1.68,6.4,6.4,0,0,1-1.981.74,3.155,3.155,0,0,0-2.276-.96,3.078,3.078,0,0,0-3.12,3.03,2.936,2.936,0,0,0,.081.69,8.967,8.967,0,0,1-6.43-3.16,2.91,2.91,0,0,0-.422,1.52,3,3,0,0,0,1.388,2.52,3.193,3.193,0,0,1-1.413-.38v0.04a3.054,3.054,0,0,0,2.5,2.97,3.176,3.176,0,0,1-.822.1,3.769,3.769,0,0,1-.587-0.05,3.108,3.108,0,0,0,2.914,2.1,6.4,6.4,0,0,1-3.874,1.3,6.089,6.089,0,0,1-.744-0.05,9.024,9.024,0,0,0,4.782,1.37,8.683,8.683,0,0,0,8.874-8.62c0-.13,0-0.26-0.008-0.39A6.257,6.257,0,0,0,655,4620.82Z" transform="translate(-639.813 -4619.41)"/>
</svg>
