<svg xmlns="http://www.w3.org/2000/svg" width="12" height="11.19" viewBox="0 0 12 11.19">
  <defs>
    <style>
      .cls-1 {
        fill: #fff;
        fill-rule: evenodd;
      }
    </style>
  </defs>
  <path id="in" class="cls-1" d="M677.412,4629.79h2.4v-7.99h-2.4v7.99Zm9.338-8.27a3.616,3.616,0,0,0-2.942,1.36v-1.11H681.4v8.02h2.406v-4.34a1.907,1.907,0,0,1,1.891-1.81c1.051,0,1.309.9,1.309,1.79v4.36h2.4v-4.54C689.406,4622.1,687.914,4621.52,686.75,4621.52Zm-8.15-2.92a1.2,1.2,0,1,1-1.2,1.2A1.2,1.2,0,0,1,678.6,4618.6Z" transform="translate(-677.406 -4618.59)"/>
</svg>
