<svg xmlns="http://www.w3.org/2000/svg" width="13.593" height="12" viewBox="0 0 13.593 12">
  <defs>
    <style>
      .cls-1 {
        fill: #fff;
        fill-rule: evenodd;
      }
    </style>
  </defs>
  <path id="v" class="cls-1" d="M747.8,4622.6c1.2-.96,2.9-3.05,4.226-3.05s1.651,1.56,1.832,2.98,0.7,4.53,1.4,4.53,2.3-2.75,2.211-3.81-1.248-.9-1.885-0.6c0.585-2.12,1.937-3.25,3.666-3.25s2.146,1.22,2.146,2.72c0,2.28-4.629,9.28-7.424,9.28-1.73,0-2.158-2.55-2.509-3.81s-1.041-4.57-1.847-4.78a3.17,3.17,0,0,0-1.2.65Z" transform="translate(-747.813 -4619.41)"/>
</svg>
